<?xml version="1.0" standalone="no"?><!DOCTYPE svg PUBLIC "-//W3C//DTD SVG 1.1//EN" "http://www.w3.org/Graphics/SVG/1.1/DTD/svg11.dtd"><svg t="1582344949593" class="icon" viewBox="0 0 1103 1024" version="1.1" xmlns="http://www.w3.org/2000/svg" p-id="1237" xmlns:xlink="http://www.w3.org/1999/xlink" width="215.4296875" height="200"><defs><style type="text/css"></style></defs><path d="M830.888 295.504c111.792 34.984 192.032 120.192 192.032 219.72 0 99.824-79.616 185.28-192.032 220.016" fill="#0092D2" p-id="1238"></path><path d="M682.976 16l-358.48 260.776H109.88c-60.064 0-108.8 48.704-108.8 108.8v252.944c0 60.096 48.736 108.728 108.8 108.728H324.56L682.976 1008V16z" fill="#F4A417" p-id="1239"></path><path d="M1.08 510.736v127.784c0 60.096 48.736 108.728 108.8 108.728H324.56L682.976 1008V510.736H1.08z" fill="#EF962F" p-id="1240"></path><path d="M324.56 747.248H109.88c-60.064 0-108.8-48.632-108.8-108.728V385.576c0-60.096 48.736-108.8 108.8-108.8h214.608l0.072 470.472z" fill="#E5226B" p-id="1241"></path><path d="M1.08 638.52c0 60.096 48.736 108.728 108.8 108.728H324.56l-0.032-236.512H1.08v127.784z" fill="#CB1B5B" p-id="1242"></path><path d="M830.888 735.232c112.416-34.736 192.032-120.192 192.032-220.016 0-1.528-0.416-2.952-0.488-4.48h-191.544v224.496z" fill="#1B81CC" p-id="1243"></path></svg>